<?xml version="1.0" encoding="utf-8"?>
<!-- Generator: Adobe Illustrator 23.1.0, SVG Export Plug-In . SVG Version: 6.00 Build 0)  -->
<svg version="1.1" id="Layer_1" xmlns="http://www.w3.org/2000/svg" xmlns:xlink="http://www.w3.org/1999/xlink" x="0px" y="0px"
	 viewBox="0 0 612 792" style="enable-background:new 0 0 612 792;" xml:space="preserve">
<style type="text/css">
	.st0{clip-path:url(#SVGID_2_);fill:none;stroke:#31006F;stroke-width:0.25;stroke-miterlimit:10;}
</style>
<g>
	<defs>
		<rect id="SVGID_1_" x="-0.29" width="612" height="792"/>
	</defs>
	<clipPath id="SVGID_2_">
		<use xlink:href="#SVGID_1_"  style="overflow:visible;"/>
	</clipPath>
	<line class="st0" x1="-0.29" y1="0" x2="-212.51" y2="792"/>
	<line class="st0" x1="6.91" y1="0" x2="-205.31" y2="792"/>
	<line class="st0" x1="14.1" y1="0" x2="-198.11" y2="792"/>
	<line class="st0" x1="21.31" y1="0" x2="-190.91" y2="792"/>
	<line class="st0" x1="28.51" y1="0" x2="-183.71" y2="792"/>
	<line class="st0" x1="35.71" y1="0" x2="-176.51" y2="792"/>
	<line class="st0" x1="42.91" y1="0" x2="-169.31" y2="792"/>
	<line class="st0" x1="50.11" y1="0" x2="-162.11" y2="792"/>
	<line class="st0" x1="57.31" y1="0" x2="-154.91" y2="792"/>
	<line class="st0" x1="64.51" y1="0" x2="-147.71" y2="792"/>
	<line class="st0" x1="71.71" y1="0" x2="-140.51" y2="792"/>
	<line class="st0" x1="78.91" y1="0" x2="-133.31" y2="792"/>
	<line class="st0" x1="86.11" y1="0" x2="-126.11" y2="792"/>
	<line class="st0" x1="93.31" y1="0" x2="-118.91" y2="792"/>
	<line class="st0" x1="100.51" y1="0" x2="-111.71" y2="792"/>
	<line class="st0" x1="107.71" y1="0" x2="-104.51" y2="792"/>
	<line class="st0" x1="114.91" y1="0" x2="-97.31" y2="792"/>
	<line class="st0" x1="122.11" y1="0" x2="-90.11" y2="792"/>
	<line class="st0" x1="129.31" y1="0" x2="-82.91" y2="792"/>
	<line class="st0" x1="136.51" y1="0" x2="-75.71" y2="792"/>
	<line class="st0" x1="143.71" y1="0" x2="-68.51" y2="792"/>
	<line class="st0" x1="150.91" y1="0" x2="-61.31" y2="792"/>
	<line class="st0" x1="158.11" y1="0" x2="-54.11" y2="792"/>
	<line class="st0" x1="165.31" y1="0" x2="-46.91" y2="792"/>
	<line class="st0" x1="172.51" y1="0" x2="-39.71" y2="792"/>
	<line class="st0" x1="179.71" y1="0" x2="-32.51" y2="792"/>
	<line class="st0" x1="186.91" y1="0" x2="-25.31" y2="792"/>
	<line class="st0" x1="194.11" y1="0" x2="-18.11" y2="792"/>
	<line class="st0" x1="201.31" y1="0" x2="-10.91" y2="792"/>
	<line class="st0" x1="208.51" y1="0" x2="-3.71" y2="792"/>
	<line class="st0" x1="215.71" y1="0" x2="3.49" y2="792"/>
	<line class="st0" x1="222.91" y1="0" x2="10.69" y2="792"/>
	<line class="st0" x1="230.11" y1="0" x2="17.89" y2="792"/>
	<line class="st0" x1="237.31" y1="0" x2="25.09" y2="792"/>
	<line class="st0" x1="244.51" y1="0" x2="32.29" y2="792"/>
	<line class="st0" x1="251.71" y1="0" x2="39.49" y2="792"/>
	<line class="st0" x1="258.91" y1="0" x2="46.69" y2="792"/>
	<line class="st0" x1="266.11" y1="0" x2="53.89" y2="792"/>
	<line class="st0" x1="273.31" y1="0" x2="61.09" y2="792"/>
	<line class="st0" x1="280.51" y1="0" x2="68.29" y2="792"/>
	<line class="st0" x1="287.71" y1="0" x2="75.49" y2="792"/>
	<line class="st0" x1="294.91" y1="0" x2="82.69" y2="792"/>
	<line class="st0" x1="302.11" y1="0" x2="89.89" y2="792"/>
	<line class="st0" x1="309.31" y1="0" x2="97.09" y2="792"/>
	<line class="st0" x1="316.51" y1="0" x2="104.29" y2="792"/>
	<line class="st0" x1="323.71" y1="0" x2="111.49" y2="792"/>
	<line class="st0" x1="330.91" y1="0" x2="118.69" y2="792"/>
	<line class="st0" x1="338.11" y1="0" x2="125.89" y2="792"/>
	<line class="st0" x1="345.31" y1="0" x2="133.09" y2="792"/>
	<line class="st0" x1="352.51" y1="0" x2="140.29" y2="792"/>
	<line class="st0" x1="359.71" y1="0" x2="147.49" y2="792"/>
	<line class="st0" x1="366.91" y1="0" x2="154.69" y2="792"/>
	<line class="st0" x1="374.11" y1="0" x2="161.89" y2="792"/>
	<line class="st0" x1="381.31" y1="0" x2="169.09" y2="792"/>
	<line class="st0" x1="388.51" y1="0" x2="176.29" y2="792"/>
	<line class="st0" x1="395.71" y1="0" x2="183.49" y2="792"/>
	<line class="st0" x1="402.91" y1="0" x2="190.69" y2="792"/>
	<line class="st0" x1="410.11" y1="0" x2="197.89" y2="792"/>
	<line class="st0" x1="417.31" y1="0" x2="205.09" y2="792"/>
	<line class="st0" x1="424.51" y1="0" x2="212.29" y2="792"/>
	<line class="st0" x1="431.71" y1="0" x2="219.49" y2="792"/>
	<line class="st0" x1="438.91" y1="0" x2="226.69" y2="792"/>
	<line class="st0" x1="446.11" y1="0" x2="233.89" y2="792"/>
	<line class="st0" x1="453.31" y1="0" x2="241.09" y2="792"/>
	<line class="st0" x1="460.51" y1="0" x2="248.29" y2="792"/>
	<line class="st0" x1="467.71" y1="0" x2="255.49" y2="792"/>
	<line class="st0" x1="474.91" y1="0" x2="262.69" y2="792"/>
	<line class="st0" x1="482.11" y1="0" x2="269.89" y2="792"/>
	<line class="st0" x1="489.31" y1="0" x2="277.09" y2="792"/>
	<line class="st0" x1="496.51" y1="0" x2="284.29" y2="792"/>
	<line class="st0" x1="503.71" y1="0" x2="291.49" y2="792"/>
	<line class="st0" x1="510.91" y1="0" x2="298.69" y2="792"/>
	<line class="st0" x1="518.11" y1="0" x2="305.89" y2="792"/>
	<line class="st0" x1="525.31" y1="0" x2="313.09" y2="792"/>
	<line class="st0" x1="532.51" y1="0" x2="320.29" y2="792"/>
	<line class="st0" x1="539.71" y1="0" x2="327.49" y2="792"/>
	<line class="st0" x1="546.91" y1="0" x2="334.69" y2="792"/>
	<line class="st0" x1="554.11" y1="0" x2="341.89" y2="792"/>
	<line class="st0" x1="561.31" y1="0" x2="349.09" y2="792"/>
	<line class="st0" x1="568.51" y1="0" x2="356.29" y2="792"/>
	<line class="st0" x1="575.71" y1="0" x2="363.49" y2="792"/>
	<line class="st0" x1="582.91" y1="0" x2="370.69" y2="792"/>
	<line class="st0" x1="590.11" y1="0" x2="377.89" y2="792"/>
	<line class="st0" x1="597.31" y1="0" x2="385.09" y2="792"/>
	<line class="st0" x1="604.51" y1="0" x2="392.29" y2="792"/>
	<line class="st0" x1="611.71" y1="0" x2="399.49" y2="792"/>
	<line class="st0" x1="618.91" y1="0" x2="406.69" y2="792"/>
	<line class="st0" x1="626.11" y1="0" x2="413.89" y2="792"/>
	<line class="st0" x1="633.31" y1="0" x2="421.09" y2="792"/>
	<line class="st0" x1="640.51" y1="0" x2="428.29" y2="792"/>
	<line class="st0" x1="647.71" y1="0" x2="435.49" y2="792"/>
	<line class="st0" x1="654.91" y1="0" x2="442.69" y2="792"/>
	<line class="st0" x1="662.11" y1="0" x2="449.89" y2="792"/>
	<line class="st0" x1="669.31" y1="0" x2="457.09" y2="792"/>
	<line class="st0" x1="676.51" y1="0" x2="464.29" y2="792"/>
	<line class="st0" x1="683.71" y1="0" x2="471.49" y2="792"/>
	<line class="st0" x1="690.91" y1="0" x2="478.69" y2="792"/>
	<line class="st0" x1="698.11" y1="0" x2="485.89" y2="792"/>
	<line class="st0" x1="705.31" y1="0" x2="493.09" y2="792"/>
	<line class="st0" x1="712.51" y1="0" x2="500.29" y2="792"/>
	<line class="st0" x1="719.71" y1="0" x2="507.49" y2="792"/>
	<line class="st0" x1="726.91" y1="0" x2="514.69" y2="792"/>
	<line class="st0" x1="734.11" y1="0" x2="521.89" y2="792"/>
	<line class="st0" x1="741.31" y1="0" x2="529.09" y2="792"/>
	<line class="st0" x1="748.51" y1="0" x2="536.29" y2="792"/>
	<line class="st0" x1="755.71" y1="0" x2="543.49" y2="792"/>
	<line class="st0" x1="762.91" y1="0" x2="550.69" y2="792"/>
	<line class="st0" x1="770.11" y1="0" x2="557.89" y2="792"/>
	<line class="st0" x1="777.31" y1="0" x2="565.09" y2="792"/>
	<line class="st0" x1="784.51" y1="0" x2="572.29" y2="792"/>
	<line class="st0" x1="791.71" y1="0" x2="579.49" y2="792"/>
	<line class="st0" x1="798.91" y1="0" x2="586.69" y2="792"/>
	<line class="st0" x1="806.11" y1="0" x2="593.89" y2="792"/>
	<line class="st0" x1="813.31" y1="0" x2="601.09" y2="792"/>
	<line class="st0" x1="820.51" y1="0" x2="608.29" y2="792"/>
</g>
</svg>
